<svg id="Calque_1" data-name="Calque 1" xmlns="http://www.w3.org/2000/svg" viewBox="0 0 742.51 261.58"><defs><style>.cls-1{fill:#002cce;}</style></defs><path class="cls-1" d="M656.37,344.32c12.16,0,24.33-.28,36.49.06,21.52.61,34.46,11,40.08,31.73.4,1.49.72,3,1.19,4.48,2.39,7.63,3.69,14.47,14.69,16.35,11.9,2,18.63,12.07,19.06,24.82a219.67,219.67,0,0,1-.13,22.52c-1,13.77-11.91,23.88-25.83,24.43-11,.43-11.26.83-11.51,12-.07,2.87-.8,7.94-2,8.16a48.78,48.78,0,0,1-15,.14c-.86-.1-1.71-4.13-1.78-6.37-.42-13.23-.34-13.23-13.79-13.23q-43.14,0-86.26,0c-9.31,0-9.86.59-9.93,9.68,0,2,.57,4.26-.2,5.9-.9,1.91-2.93,3.33-4.59,4.82-.38.33-1.29.08-2,.08-14.57,0-12.93.65-12.76-12.17.08-5.77-1.67-8.21-7.86-8.52-20.08-1-29.79-11.63-30-31.93q-.07-7.62.14-15.25a28,28,0,0,1,24.64-26.88c2.41-.29,5.35-3,6.48-5.4,2.17-4.53,3.34-9.56,4.72-14.44,5.38-19,18.55-30,38.26-30.81,12.58-.54,25.21-.1,37.81-.1Zm.19,113.45c27.2,0,54.4,0,81.61,0,11.3,0,18.45-7.24,18.61-18.61.07-5.3.14-10.62-.06-15.92a16.94,16.94,0,0,0-12.92-15.71,49.38,49.38,0,0,0-10.51-1.05q-76.63-.09-153.27,0a61,61,0,0,0-10.53,1,15.81,15.81,0,0,0-13,14,155,155,0,0,0-.41,16.56c.22,13.37,6.75,19.77,20.16,19.8C603,457.8,629.8,457.76,656.56,457.77Zm.15-62.61q27.87,0,55.74,0c12.1,0,12.41-.43,9.41-11.84-.45-1.7-.69-3.47-1.09-5.19-3.11-13.27-14-22.15-27.63-22.22-24.33-.11-48.66,0-73-.07-8.28,0-14.81,3.18-20.65,8.91-6.3,6.2-7.72,14.25-9.43,22.2-1.5,6.95-.39,8.16,6.92,8.18C616.89,395.2,636.8,395.16,656.71,395.16Z" transform="translate(-25.6 -274.45)"/><path class="cls-1" d="M32.2,458.71c.37-5.19.31-9.65,1.08-14,.85-4.81,2.39-9.2-5-10.16-1.22-.16-3.06-4.09-2.68-5.87.5-2.39,2.46-5.69,4.51-6.35a179.17,179.17,0,0,1,26.12-6.64c14.63-2.32,28.05,2.13,41.24,8.41,18.26,8.68,18.4,22.13,7.65,36.82-6.61,9-17.28,15.34-26.77,22-6.07,4.25-13.26,6.92-20,10.16-4.2,2-5.92,4.84-4.48,9.59,1.59,5.25,2.61,10.68,4.08,16,1.74,6.28-2.23,14.69-8.4,16.81-5.41,1.86-8.73-1-9.82-5.92-1.89-8.61-3.8-17.28-4.63-26C33.71,488.37,33.11,473.15,32.2,458.71Zm15.95-27.34c.89,5.94,2.13,10.29,2.06,14.63-.09,6.35-1.46,12.66-1.67,19-.31,9.34,4.6,13.53,13.89,11.37,14.8-3.44,24.95-12.81,30.43-26.81.88-2.25-.42-7-2.33-8.4-9-6.58-19.11-11.12-30.49-11.38C55.69,429.69,51.32,430.92,48.15,431.37Z" transform="translate(-25.6 -274.45)"/><path class="cls-1" d="M255.31,393.93c1,1.48,3.38,3.43,3.56,5.57,1.22,14.07,2,28.17,2.84,42.27.09,1.32-.24,2.78.21,3.94,1.15,2.94,2.64,5.75,4,8.6a78.91,78.91,0,0,0,7.63-4.28c4.46-3.17,8.53-7,13.18-9.8,2-1.23,5.14-1.34,7.59-.94,4.93.81,5.9,3.88,2.12,7.28-4.24,3.82-9.25,6.77-13.67,10.41-6.47,5.35-6.28,6.67.72,11.39,10.06,6.78,20.16,13.51,30.15,20.41,3.42,2.36,7.57,4.82,3.65,10-3.42,4.51-6.89,4.95-11.8,1.43-9.5-6.81-19.43-13-29.34-19.23a7.6,7.6,0,0,0-6-.7c-.91.36-1.26,3.54-1,5.31.92,5.66,2.05,11.29,3.47,16.85,1.23,4.84-.55,7.82-5.05,9.15s-6.07-1.52-7.71-5.15C252,489,250.38,470.34,249,451.59c-.8-10.74-2.63-21.39-3.76-32.11-.59-5.67-.88-11.39-.9-17.08C244.3,396.36,248.74,394.88,255.31,393.93Z" transform="translate(-25.6 -274.45)"/><path class="cls-1" d="M657.26,274.45c4.77,1.47,10.24,3.07,15.65,4.85q43.65,14.38,87.27,28.83c.84.27,1.66.64,2.51.87,4.21,1.14,5.92,4,4.66,8s-4.53,4.09-8.12,2.89c-10.26-3.45-20.56-6.76-30.83-10.16-21-6.94-41.94-13.81-62.83-20.93a26.07,26.07,0,0,0-17.41-.18C617,299,585.65,309.13,554.42,319.44c-4.13,1.37-8,2.55-9.62-2.95-1.43-4.9,2.1-6.58,5.93-7.84Q601.3,292,651.86,275.38A40.32,40.32,0,0,1,657.26,274.45Z" transform="translate(-25.6 -274.45)"/><path class="cls-1" d="M426.13,431c0-11.21,12-24.77,25.52-28.88,7.26-2.21,14.35-4.07,21.89-.64,3.34,1.53,4.33,3.26,3.32,6.59-6.47,21.44-1.54,42.43,2.62,63.44,1.55,7.79,3.48,15.52,4.83,23.34,2.68,15.54-8.35,26.09-24,24-8.54-1.17-15.81-3.87-20.92-11-2.14-3-5.08-6.24-1-9.84,3.65-3.26,6.55-.61,9.26,1.71,3,2.59,5.48,6.11,8.89,7.82s8.81,3.57,11.44,2.06c3-1.74,5.75-7.22,5.49-10.86-.73-10.51-2.88-20.93-4.76-31.33-.9-5-2.7-9.79-3.62-14.76-.81-4.41-3-5-6.53-3.24a6.5,6.5,0,0,0-1.16.64C442.66,462,424.22,446.23,426.13,431Zm11.06.76c.86,2,2.07,6.32,4.33,10,3.09,5,10.91,5.63,13.22.58a103,103,0,0,0,7.42-24.86c.73-4.2-2.69-8-8-7.52C446.37,410.67,437,421.55,437.19,431.8Z" transform="translate(-25.6 -274.45)"/><path class="cls-1" d="M181.35,465.75c-.62,17.2-1.1,34.41-1.92,51.6-.4,8.48-2.26,8.38-10,4.94-5.95-2.65-13.22-2.52-19.95-3.17-9-.85-17-2.94-21.49-11.8-5.06-10-2.21-21.59,6.74-29.93,8.1-7.55,18.06-9.94,28.42-11.07,4.81-.52,7.51-1.7,7.1-7.06s-3.06-8.74-8.48-7.44A134,134,0,0,0,142,458.48c-3.82,1.58-7.19,4.09-10.17-.9-2.9-4.84-2.49-8.94,3.19-11.22,6.67-2.67,13.28-6.17,20.24-7.31,15-2.47,25.14,6.16,26.66,21.42.17,1.75,0,3.53,0,5.3Zm-24,43.61c2.95-1.39,9.63-2.46,10.67-5.47,2.2-6.4,1.82-13.81,1.69-20.79,0-1.57-3.85-4.72-5.09-4.35-8.14,2.42-16.47,4.85-23.81,8.94-2.78,1.55-4.54,7.71-4.05,11.4.38,2.86,4.62,5.88,7.82,7.52S151.79,508.26,157.37,509.36Z" transform="translate(-25.6 -274.45)"/><path class="cls-1" d="M211,517.83c-6.32-1.06-9.06-4-9.8-9-2-13.53-3.57-27.15-6.34-40.53-1.54-7.47-5.16-14.51-7.79-21.76-2.21-6.09-.25-11.24,4.95-13.29,4.54-1.79,10.12,1.67,12.35,7.37,1.05,2.69,2.58,5.19,3.89,7.78,3.18-2.1,7-3.65,9.4-6.43,4.08-4.76,7.33-10.36,14.76-9.3,2.46.35,5.87,1.11,6.81,2.8.8,1.46-.73,5-2.2,6.8-5.69,7-11.94,13.62-17.65,20.64-7.27,8.93-8,23.6-1.66,33.09,4,6,3.75,11.76-.3,17.2C215.78,515.45,212.72,516.66,211,517.83Z" transform="translate(-25.6 -274.45)"/><path class="cls-1" d="M423.51,296.07c2.1,1.57,5.42,3.19,5.24,4.08-.46,2.19-2.12,5.08-4,5.83-6.94,2.71-14.23,4.52-21.28,6.95a57.42,57.42,0,0,0-9.52,4.49c-4.7,2.68-4.82,6.32-.79,9.51,5.18,4.09,10.7,7.77,16.19,11.43S420.83,345,426,349.12c9.28,7.44,9.63,19.7,1.77,28.63-10.06,11.45-29.68,14.14-42.82,9.79-5.65-1.87-5.28-5.92-3.47-10.14,2-4.61,4.5-4.51,8.69-1.64,7.41,5.06,23.72,2.75,30.38-3.47a8.83,8.83,0,0,0-.65-13c-5.25-4.35-11.05-8-16.65-11.95-8.66-6.05-17.41-12-26-18.1-5-3.55-4.81-7.88-.41-11.53s9.24-7.74,14.56-10C401.6,303.33,412.34,300,423.51,296.07Z" transform="translate(-25.6 -274.45)"/><path class="cls-1" d="M393.45,443.09c-7.32,6.28-9,12.81-10.87,19.36s-3.53,13.23-6.13,19.51c-.91,2.19-4.21,4.38-6.61,4.6-1.35.12-4.08-3.58-4.46-5.85-2.13-12.62-3.84-25.3-5.42-38-.44-3.46-.89-7.45.43-10.42,1-2.3,4.65-4.09,7.41-4.63,1-.2,3.57,3.53,4.2,5.8.68,2.42-.4,5.29-.08,7.88.21,1.74,1.51,3.35,2.32,5,1.46-1.05,3.34-1.82,4.3-3.21,2.62-3.8,4.42-8.21,7.32-11.74,5.91-7.21,13.34-6.81,16.22,1.75,4.6,13.7,7.46,28,11,42a70.86,70.86,0,0,1,1.37,7.81c.49,3.54.14,6.79-4.17,7.7s-7.49.07-8.29-4.92c-1.5-9.36-2.89-18.75-4.62-28.07C396.54,453.32,395.06,449,393.45,443.09Z" transform="translate(-25.6 -274.45)"/><path class="cls-1" d="M480.15,381.19c-8.22-2.25-16.74-3.79-24.6-6.95-9.62-3.85-12.35-13-12.56-22.28-.56-25.09,13.24-40.85,38.49-37,2.39.36,4.48,2.77,6.71,4.23-2,1.75-3.78,4.25-6.12,5.06-3,1-6.49,1-9.76.93-8.42-.1-14.56,3.81-17.4,11.41-3.78,10.15-.19,24,8,30s21.37,8.17,29.8-.58a7.47,7.47,0,0,1,5.26-2.3c2.1.22,4.78,1.42,5.84,3.07.73,1.14-.28,4.39-1.55,5.63C496.29,378.27,488.76,380.38,480.15,381.19Z" transform="translate(-25.6 -274.45)"/><path class="cls-1" d="M333.6,432.46c8.9.1,9.49,2.45,9.3,8.53a349.77,349.77,0,0,0,1.17,42c.46,5.19.69,8.55-4.66,10.38s-8.13-1.46-9.24-5.78a106.69,106.69,0,0,1-2.7-16.89c-.69-7.44-1.11-14.92-1.17-22.38a23.66,23.66,0,0,1,1.86-10.3C329.46,435.3,332.54,433.48,333.6,432.46Z" transform="translate(-25.6 -274.45)"/><path class="cls-1" d="M343,407.55c-.13,5.87-3.9,9.57-9.62,9.24-4.82-.29-7.9-2.62-7.88-7.78,0-5.36,4.29-9.25,9.88-9.2C340.47,399.86,343.05,402.48,343,407.55Z" transform="translate(-25.6 -274.45)"/><path class="cls-1" d="M591.93,441.84c-4.77.12-9.31-4.24-9.59-9.2s4.6-10.09,9.47-10.11c4.64,0,9.48,4.64,9.65,9.28C601.65,436.84,597,441.72,591.93,441.84Z" transform="translate(-25.6 -274.45)"/><path class="cls-1" d="M730.37,432.14a9.94,9.94,0,0,1-9.66,9.71,9.42,9.42,0,0,1-9-9.56c0-5.29,4.56-10,9.56-9.76A9.83,9.83,0,0,1,730.37,432.14Z" transform="translate(-25.6 -274.45)"/></svg>