<svg id="Calque_1" data-name="Calque 1" xmlns="http://www.w3.org/2000/svg" viewBox="0 0 461.89 444.86"><defs><style>.cls-1{fill:#002cce;}</style></defs><path class="cls-1" d="M397.2,290.27c25.1,0,50.22-.58,75.31.13,44.42,1.25,71.13,22.76,82.71,65.47.84,3.08,1.5,6.21,2.46,9.25,5,15.73,7.61,29.87,30.33,33.75,24.55,4.19,38.44,24.9,39.32,51.22.52,15.47.8,31-.26,46.45-2,28.43-24.57,49.29-53.31,50.42-22.72.9-23.23,1.72-23.76,24.83-.14,5.9-1.65,16.37-4.06,16.83-10,2-20.74,1.52-31,.29-1.78-.22-3.52-8.53-3.67-13.15-.87-27.3-.71-27.31-28.46-27.31q-89,0-178,0c-19.2,0-20.35,1.23-20.49,20,0,4.11,1.18,8.8-.41,12.17-1.85,4-6,6.88-9.47,10-.78.7-2.65.18-4,.18-30.08.06-26.69,1.33-26.33-25.12.16-11.91-3.45-16.94-16.22-17.59-41.45-2.12-61.49-24-61.9-65.88q-.16-15.74.29-31.48C167,425.22,186,399,217.1,395.21c5-.61,11-6.27,13.36-11.14,4.49-9.35,6.9-19.74,9.75-29.82,11.09-39.19,38.28-61.83,79-63.57,26-1.1,52-.2,78-.2Zm.4,234.12c56.14,0,112.28.09,168.42,0,23.31-.05,38.07-15,38.4-38.4.15-10.95.29-21.91-.12-32.85-.58-15.31-11.78-29.13-26.66-32.43A101.1,101.1,0,0,0,556,418.51q-158.16-.19-316.3,0a124.85,124.85,0,0,0-21.74,2,32.64,32.64,0,0,0-26.75,28.83,321.71,321.71,0,0,0-.85,34.17c.46,27.6,13.91,40.81,41.61,40.86C287.14,524.46,342.37,524.38,397.6,524.39Zm.31-129.19q57.51,0,115,0c25,0,25.62-.89,19.41-24.43-.92-3.53-1.42-7.16-2.25-10.72-6.4-27.38-28.81-45.72-57-45.85-50.21-.23-100.43.08-150.64-.15-17.09-.08-30.56,6.57-42.6,18.4-13,12.78-15.95,29.39-19.48,45.8-3.08,14.34-.79,16.84,14.28,16.89C315.74,395.27,356.83,395.18,397.91,395.2Z" transform="translate(-165.91 -146.07)"/><path class="cls-1" d="M399.05,146.07c9.83,3,21.12,6.35,32.29,10q90.09,29.66,180.11,59.48c1.73.57,3.41,1.32,5.17,1.8,8.69,2.36,12.22,8.31,9.62,16.56-2.67,8.45-9.35,8.44-16.76,5.94-21.17-7.12-42.43-13.93-63.63-20.95-43.24-14.33-86.53-28.51-129.66-43.19-12.17-4.15-23.57-4.49-35.92-.37-64.4,21.43-129,42.28-193.45,63.56-8.52,2.81-16.53,5.25-19.85-6.09-3-10.13,4.33-13.58,12.23-16.18Q283.56,182.34,387.91,148C390.9,147,394.16,146.89,399.05,146.07Z" transform="translate(-165.91 -146.07)"/><path class="cls-1" d="M264.23,491.52c-9.85.24-19.22-8.75-19.78-19s9.48-20.83,19.53-20.87c9.56,0,19.56,9.58,19.91,19.16C284.28,481.21,274.71,491.27,264.23,491.52Z" transform="translate(-165.91 -146.07)"/><path class="cls-1" d="M549.93,471.5c0,10.68-9.46,20.17-19.95,20-10.12-.12-18.5-9.05-18.51-19.74,0-10.9,9.42-20.52,19.74-20.12C541.22,452.06,549.94,461.3,549.93,471.5Z" transform="translate(-165.91 -146.07)"/></svg>